<?xml version="1.0" standalone="no"?><!DOCTYPE svg PUBLIC "-//W3C//DTD SVG 1.1//EN" "http://www.w3.org/Graphics/SVG/1.1/DTD/svg11.dtd"><svg xmlns:xlink="http://www.w3.org/1999/xlink" version="1.1" style="font-family:dosis, sans-serif;font-size:12px;" xmlns="http://www.w3.org/2000/svg" width="600" height="400"><desc>Created with Highcharts 4.2.7</desc><defs><clipPath id="highcharts-31"><rect x="-100" y="-100" width="600" height="800"></rect></clipPath></defs><rect x="1" y="1" width="598" height="398" fill="none" class=" highcharts-background"></rect><rect x="100" y="100" width="400" height="200" fill="rgb(255, 255, 255)" fill-opacity=" .9"></rect><g style="stroke:rgba(255,255,255,0);"><path fill="rgb(255,255,255)" fill-opacity="0" d="M 0 0" stroke-linejoin="round"></path><path fill="rgb(230,230,230)" fill-opacity="0" d="M 0 0" stroke-linejoin="round"></path><path fill="rgb(255,255,255)" fill-opacity="0" d="M 103.36956521739131 298.80434782608694 L 495.6521739130435 298.80434782608694 L 495.6521739130435 102.17391304347827 L 103.36956521739131 102.17391304347827 Z" stroke-linejoin="round"></path></g><g style="stroke:rgba(255,255,255,0);"><path fill="rgb(255,255,255)" fill-opacity="0" d="M 99 301 L 100 301 L 100 100 L 99 100 Z" stroke-linejoin="round"></path><path fill="rgb(255,255,255)" fill-opacity="0" d="M 0 0" stroke-linejoin="round"></path><path fill="rgb(230,230,230)" fill-opacity="0" d="M 100 100 L 100 301 L 104.34782608695653 298.80434782608694 L 104.34782608695653 102.17391304347827 Z" stroke-linejoin="round"></path></g><g style="stroke:rgba(255,255,255,0);"><path fill="rgb(255,255,255)" fill-opacity="0" d="M 100 301 L 500 301 L 500 300 L 100 300 Z" stroke-linejoin="round"></path><path fill="rgb(230,230,230)" fill-opacity="0" d="M 0 0" stroke-linejoin="round"></path><path fill="rgb(255,255,255)" fill-opacity="0" d="M 500 300 L 495.6521739130435 297.82608695652175 L 104.34782608695653 297.82608695652175 L 100 300 Z" stroke-linejoin="round"></path></g><g class="highcharts-grid"><path fill="none" d="M 100 133.5 L 104.34782608695653 134.94565217391306 L 495.6521739130435 134.94565217391306 L 495.6521739130435 134.94565217391306" stroke="#C0C0C0" stroke-width="1" opacity="1"></path><path fill="none" d="M 100 167.5 L 104.34782608695653 168.20652173913044 L 495.6521739130435 168.20652173913044 L 495.6521739130435 168.20652173913044" stroke="#C0C0C0" stroke-width="1" opacity="1"></path><path fill="none" d="M 100 200.5 L 104.34782608695653 200.4891304347826 L 495.6521739130435 200.4891304347826 L 495.6521739130435 200.4891304347826" stroke="#C0C0C0" stroke-width="1" opacity="1"></path><path fill="none" d="M 100 233.5 L 104.34782608695653 232.77173913043478 L 495.6521739130435 232.77173913043478 L 495.6521739130435 232.77173913043478" stroke="#C0C0C0" stroke-width="1" opacity="1"></path><path fill="none" d="M 100 267.5 L 104.34782608695653 266.0326086956522 L 495.6521739130435 266.0326086956522 L 495.6521739130435 266.0326086956522" stroke="#C0C0C0" stroke-width="1" opacity="1"></path><path fill="none" d="M 100 300.5 L 104.34782608695653 298.3152173913044 L 495.6521739130435 298.3152173913044 L 495.6521739130435 298.3152173913044" stroke="#C0C0C0" stroke-width="1" opacity="1"></path><path fill="none" d="M 100 99.5 L 104.34782608695653 101.68478260869566 L 495.6521739130435 101.68478260869566 L 495.6521739130435 101.68478260869566" stroke="#C0C0C0" stroke-width="1" opacity="1"></path></g><g class="highcharts-grid"></g><g class="highcharts-grid"><path fill="none" d="M 103.8586956521739 102.17391304347827 L 103.8586956521739 102.17391304347827 L 103.8586956521739 297.82608695652175 L 99.5 300" stroke="#E0E0E0" stroke-width="1" opacity="1"></path><path fill="none" d="M 116.57608695652175 102.17391304347827 L 116.57608695652175 102.17391304347827 L 116.57608695652175 297.82608695652175 L 112.5 300" stroke="#E0E0E0" stroke-width="1" opacity="1"></path><path fill="none" d="M 130.27173913043478 102.17391304347827 L 130.27173913043478 102.17391304347827 L 130.27173913043478 297.82608695652175 L 126.5 300" stroke="#E0E0E0" stroke-width="1" opacity="1"></path><path fill="none" d="M 142.9891304347826 102.17391304347827 L 142.9891304347826 102.17391304347827 L 142.9891304347826 297.82608695652175 L 139.5 300" stroke="#E0E0E0" stroke-width="1" opacity="1"></path><path fill="none" d="M 155.70652173913044 102.17391304347827 L 155.70652173913044 102.17391304347827 L 155.70652173913044 297.82608695652175 L 152.5 300" stroke="#E0E0E0" stroke-width="1" opacity="1"></path><path fill="none" d="M 169.40217391304347 102.17391304347827 L 169.40217391304347 102.17391304347827 L 169.40217391304347 297.82608695652175 L 166.5 300" stroke="#E0E0E0" stroke-width="1" opacity="1"></path><path fill="none" d="M 182.1195652173913 102.17391304347827 L 182.1195652173913 102.17391304347827 L 182.1195652173913 297.82608695652175 L 179.5 300" stroke="#E0E0E0" stroke-width="1" opacity="1"></path><path fill="none" d="M 194.83695652173913 102.17391304347827 L 194.83695652173913 102.17391304347827 L 194.83695652173913 297.82608695652175 L 192.5 300" stroke="#E0E0E0" stroke-width="1" opacity="1"></path><path fill="none" d="M 208.5326086956522 102.17391304347827 L 208.5326086956522 102.17391304347827 L 208.5326086956522 297.82608695652175 L 206.5 300" stroke="#E0E0E0" stroke-width="1" opacity="1"></path><path fill="none" d="M 221.25 102.17391304347827 L 221.25 102.17391304347827 L 221.25 297.82608695652175 L 219.5 300" stroke="#E0E0E0" stroke-width="1" opacity="1"></path><path fill="none" d="M 233.9673913043478 102.17391304347827 L 233.9673913043478 102.17391304347827 L 233.9673913043478 297.82608695652175 L 232.5 300" stroke="#E0E0E0" stroke-width="1" opacity="1"></path><path fill="none" d="M 247.66304347826087 102.17391304347827 L 247.66304347826087 102.17391304347827 L 247.66304347826087 297.82608695652175 L 246.5 300" stroke="#E0E0E0" stroke-width="1" opacity="1"></path><path fill="none" d="M 260.3804347826087 102.17391304347827 L 260.3804347826087 102.17391304347827 L 260.3804347826087 297.82608695652175 L 259.5 300" stroke="#E0E0E0" stroke-width="1" opacity="1"></path><path fill="none" d="M 273.0978260869565 102.17391304347827 L 273.0978260869565 102.17391304347827 L 273.0978260869565 297.82608695652175 L 272.5 300" stroke="#E0E0E0" stroke-width="1" opacity="1"></path><path fill="none" d="M 286.79347826086956 102.17391304347827 L 286.79347826086956 102.17391304347827 L 286.79347826086956 297.82608695652175 L 286.5 300" stroke="#E0E0E0" stroke-width="1" opacity="1"></path><path fill="none" d="M 299.5108695652174 102.17391304347827 L 299.5108695652174 102.17391304347827 L 299.5108695652174 297.82608695652175 L 299.5 300" stroke="#E0E0E0" stroke-width="1" opacity="1"></path><path fill="none" d="M 312.2282608695652 102.17391304347827 L 312.2282608695652 102.17391304347827 L 312.2282608695652 297.82608695652175 L 312.5 300" stroke="#E0E0E0" stroke-width="1" opacity="1"></path><path fill="none" d="M 325.92391304347825 102.17391304347827 L 325.92391304347825 102.17391304347827 L 325.92391304347825 297.82608695652175 L 326.5 300" stroke="#E0E0E0" stroke-width="1" opacity="1"></path><path fill="none" d="M 338.64130434782606 102.17391304347827 L 338.64130434782606 102.17391304347827 L 338.64130434782606 297.82608695652175 L 339.5 300" stroke="#E0E0E0" stroke-width="1" opacity="1"></path><path fill="none" d="M 351.35869565217394 102.17391304347827 L 351.35869565217394 102.17391304347827 L 351.35869565217394 297.82608695652175 L 352.5 300" stroke="#E0E0E0" stroke-width="1" opacity="1"></path><path fill="none" d="M 365.05434782608694 102.17391304347827 L 365.05434782608694 102.17391304347827 L 365.05434782608694 297.82608695652175 L 366.5 300" stroke="#E0E0E0" stroke-width="1" opacity="1"></path><path fill="none" d="M 377.77173913043475 102.17391304347827 L 377.77173913043475 102.17391304347827 L 377.77173913043475 297.82608695652175 L 379.5 300" stroke="#E0E0E0" stroke-width="1" opacity="1"></path><path fill="none" d="M 390.4891304347826 102.17391304347827 L 390.4891304347826 102.17391304347827 L 390.4891304347826 297.82608695652175 L 392.5 300" stroke="#E0E0E0" stroke-width="1" opacity="1"></path><path fill="none" d="M 404.1847826086956 102.17391304347827 L 404.1847826086956 102.17391304347827 L 404.1847826086956 297.82608695652175 L 406.5 300" stroke="#E0E0E0" stroke-width="1" opacity="1"></path><path fill="none" d="M 416.9021739130435 102.17391304347827 L 416.9021739130435 102.17391304347827 L 416.9021739130435 297.82608695652175 L 419.5 300" stroke="#E0E0E0" stroke-width="1" opacity="1"></path><path fill="none" d="M 429.6195652173913 102.17391304347827 L 429.6195652173913 102.17391304347827 L 429.6195652173913 297.82608695652175 L 432.5 300" stroke="#E0E0E0" stroke-width="1" opacity="1"></path><path fill="none" d="M 443.3152173913044 102.17391304347827 L 443.3152173913044 102.17391304347827 L 443.3152173913044 297.82608695652175 L 446.5 300" stroke="#E0E0E0" stroke-width="1" opacity="1"></path><path fill="none" d="M 456.0326086956522 102.17391304347827 L 456.0326086956522 102.17391304347827 L 456.0326086956522 297.82608695652175 L 459.5 300" stroke="#E0E0E0" stroke-width="1" opacity="1"></path><path fill="none" d="M 468.75 102.17391304347827 L 468.75 102.17391304347827 L 468.75 297.82608695652175 L 472.5 300" stroke="#E0E0E0" stroke-width="1" opacity="1"></path><path fill="none" d="M 482.445652173913 102.17391304347827 L 482.445652173913 102.17391304347827 L 482.445652173913 297.82608695652175 L 486.5 300" stroke="#E0E0E0" stroke-width="1" opacity="1"></path><path fill="none" d="M 496.1413043478261 102.17391304347827 L 496.1413043478261 102.17391304347827 L 496.1413043478261 297.82608695652175 L 500.5 300" stroke="#E0E0E0" stroke-width="1" opacity="1"></path><path fill="none" d="M 103.8586956521739 102.17391304347827 L 103.8586956521739 102.17391304347827 L 103.8586956521739 297.82608695652175 L 99.5 300" stroke="#C0C0C0" stroke-width="1" opacity="1"></path><path fill="none" d="M 169.40217391304347 102.17391304347827 L 169.40217391304347 102.17391304347827 L 169.40217391304347 297.82608695652175 L 166.5 300" stroke="#C0C0C0" stroke-width="1" opacity="1"></path><path fill="none" d="M 233.9673913043478 102.17391304347827 L 233.9673913043478 102.17391304347827 L 233.9673913043478 297.82608695652175 L 232.5 300" stroke="#C0C0C0" stroke-width="1" opacity="1"></path><path fill="none" d="M 299.5108695652174 102.17391304347827 L 299.5108695652174 102.17391304347827 L 299.5108695652174 297.82608695652175 L 299.5 300" stroke="#C0C0C0" stroke-width="1" opacity="1"></path><path fill="none" d="M 365.05434782608694 102.17391304347827 L 365.05434782608694 102.17391304347827 L 365.05434782608694 297.82608695652175 L 366.5 300" stroke="#C0C0C0" stroke-width="1" opacity="1"></path><path fill="none" d="M 429.6195652173913 102.17391304347827 L 429.6195652173913 102.17391304347827 L 429.6195652173913 297.82608695652175 L 432.5 300" stroke="#C0C0C0" stroke-width="1" opacity="1"></path><path fill="none" d="M 496.1413043478261 102.17391304347827 L 496.1413043478261 102.17391304347827 L 496.1413043478261 297.82608695652175 L 500.5 300" stroke="#C0C0C0" stroke-width="1" opacity="1"></path></g><g class="highcharts-axis"><path fill="none" d="M 0 0" stroke="#C0D0E0" stroke-width="1"></path></g><g class="highcharts-axis"></g><g class="highcharts-axis"><path fill="none" d="M 0 0"></path></g><g class="highcharts-series-group"><g class="highcharts-series highcharts-series-1" transform="translate(500,300) rotate(90) scale(-1,1) scale(1 1)" width="400" height="200" clip-path="url(#highcharts-31)"></g><g class="highcharts-markers highcharts-series-1" transform="translate(500,300) rotate(90) scale(-1,1) scale(1 1)" width="400" height="200" clip-path="none"></g><g class="highcharts-series highcharts-series-0" transform="translate(500,300) rotate(90) scale(-1,1) scale(1 1)" width="400" height="200" clip-path="url(#highcharts-31)"><g stroke="#50B432" stroke-width="1" r="0"><path fill="rgb(105,205,75)" d="M 0 0" stroke-linejoin="round"></path><path fill="#50B432" d="M 174.4834481226394 400.45545434347923 L 190.47989335703176 400.45545434347923 L 190.47989335703176 67.5294379026883 L 174.4834481226394 67.5294379026883 Z" stroke-linejoin="round"></path><path fill="rgb(55,155,25)" d="M 174.4834481226394 67.5294379026883 L 174.07202828104286 68.26115775519222 L 174.07202828104286 399.3482103402563 L 174.4834481226394 400.45545434347923 Z" stroke-linejoin="round"></path></g><g stroke="#ED561B" stroke-width="1" r="0"><path fill="#ED561B" d="M 141.4907798267052 400.45545434347923 L 157.48722506109755 400.45545434347923 L 157.48722506109755 233.49255720950902 L 141.4907798267052 233.49255720950902 Z" stroke-linejoin="round"></path><path fill="rgb(255,111,52)" d="M 157.48722506109755 233.49255720950902 L 157.16968625718073 233.30755634114007 L 141.26159964648696 233.30755634114007 L 141.4907798267052 233.49255720950902 Z" stroke-linejoin="round"></path><path fill="rgb(212,61,2)" d="M 141.4907798267052 233.49255720950902 L 141.26159964648696 233.30755634114007 L 141.26159964648696 399.3482103402563 L 141.4907798267052 400.45545434347923 Z" stroke-linejoin="round"></path></g><g stroke="#DDDF00" stroke-width="1" r="0"><path fill="#DDDF00" d="M 108.49811153077094 400.45545434347923 L 124.4945567651633 400.45545434347923 L 124.4945567651633 233.49255720950902 L 108.49811153077094 233.49255720950902 Z" stroke-linejoin="round"></path><path fill="rgb(246,248,25)" d="M 124.4945567651633 233.49255720950902 L 124.35925762262484 233.30755634114007 L 108.45117101193107 233.30755634114007 L 108.49811153077094 233.49255720950902 Z" stroke-linejoin="round"></path><path fill="rgb(196,198,0)" d="M 108.49811153077094 233.49255720950902 L 108.45117101193107 233.30755634114007 L 108.45117101193107 399.3482103402563 L 108.49811153077094 400.45545434347923 Z" stroke-linejoin="round"></path></g><g stroke="#24CBE5" stroke-width="1" r="0"><path fill="#24CBE5" d="M 74.50566540768718 400.45545434347923 L 90.50211064207954 400.45545434347923 L 90.50211064207954 233.49255720950902 L 74.50566540768718 233.49255720950902 Z" stroke-linejoin="round"></path><path fill="rgb(61,228,254)" d="M 90.50211064207954 233.49255720950902 L 90.55457357490057 233.30755634114007 L 74.6464869642068 233.30755634114007 L 74.50566540768718 233.49255720950902 Z" stroke-linejoin="round"></path><path fill="rgb(11,178,204)" d="M 90.50211064207954 233.49255720950902 L 90.50211064207954 400.45545434347923 L 90.55457357490057 399.3482103402563 L 90.55457357490057 233.30755634114007 Z" stroke-linejoin="round"></path></g><g stroke="#64E572" stroke-width="1" r="0"><path fill="rgb(125,254,139)" d="M 0 0" stroke-linejoin="round"></path><path fill="#64E572" d="M 41.512997111752945 400.45545434347923 L 57.5094423461453 400.45545434347923 L 57.5094423461453 67.5294379026883 L 41.512997111752945 67.5294379026883 Z" stroke-linejoin="round"></path><path fill="rgb(75,204,89)" d="M 57.5094423461453 67.5294379026883 L 57.5094423461453 400.45545434347923 L 57.744144940344675 399.3482103402563 L 57.744144940344675 68.26115775519222 Z" stroke-linejoin="round"></path></g><g stroke="#FF9655" stroke-width="1" r="0"><path fill="rgb(255,175,110)" d="M 0 0" stroke-linejoin="round"></path><path fill="#FF9655" d="M 8.5203288158187 400.45545434347923 L 24.51677405021107 400.45545434347923 L 24.51677405021107 133.51477449455678 L 8.5203288158187 133.51477449455678 Z" stroke-linejoin="round"></path><path fill="rgb(230,125,60)" d="M 24.51677405021107 133.51477449455678 L 24.51677405021107 400.45545434347923 L 24.933716305788778 399.3482103402563 L 24.933716305788778 133.88201502430402 Z" stroke-linejoin="round"></path></g></g><g class="highcharts-markers highcharts-series-0" transform="translate(500,300) rotate(90) scale(-1,1) scale(1 1)" width="400" height="200" clip-path="none"></g></g><text x="300" text-anchor="middle" class="highcharts-title" style="color:#333;font-size:16px;font-family:dosis, sans-serif;text-transform:uppercase;font-weight:bold;fill:#333;width:536px;" y="22"><tspan>My Skills</tspan></text><text x="300" text-anchor="middle" class="highcharts-subtitle" style="color:#666666;font-size:12px;font-family:dosis, sans-serif;text-transform:none;font-weight:bold;fill:#666666;width:536px;" y="44"><tspan>my opinion</tspan></text><g class="highcharts-data-labels highcharts-series-1" transform="translate(100,100) scale(1 1)" opacity="1"></g><g class="highcharts-data-labels highcharts-series-0" transform="translate(100,100) scale(1 1)" opacity="1"><g style="cursor:pointer;" transform="translate(333,10)"><text x="5" style="font-size:4px;font-weight:bold;font-family:'arial', sans-serif;color:#333;text-shadow:0 0 6px #ffffff, 0 0 3px #ffffff;fill:#333;text-rendering:geometricprecision;" y="11"><tspan>50</tspan></text></g><g style="cursor:pointer;" transform="translate(167,43)"><text x="5" style="font-size:4px;font-weight:bold;font-family:'arial', sans-serif;color:#333;text-shadow:0 0 6px #ffffff, 0 0 3px #ffffff;fill:#333;text-rendering:geometricprecision;" y="11"><tspan>25</tspan></text></g><g style="cursor:pointer;" transform="translate(167,76)"><text x="5" style="font-size:4px;font-weight:bold;font-family:'arial', sans-serif;color:#333;text-shadow:0 0 6px #ffffff, 0 0 3px #ffffff;fill:#333;text-rendering:geometricprecision;" y="11"><tspan>25</tspan></text></g><g style="cursor:pointer;" transform="translate(167,110)"><text x="5" style="font-size:4px;font-weight:bold;font-family:'arial', sans-serif;color:#333;text-shadow:0 0 6px #ffffff, 0 0 3px #ffffff;fill:#333;text-rendering:geometricprecision;" y="11"><tspan>25</tspan></text></g><g style="cursor:pointer;" transform="translate(333,143)"><text x="5" style="font-size:4px;font-weight:bold;font-family:'arial', sans-serif;color:#333;text-shadow:0 0 6px #ffffff, 0 0 3px #ffffff;fill:#333;text-rendering:geometricprecision;" y="11"><tspan>50</tspan></text></g><g style="cursor:pointer;" transform="translate(267,176)"><text x="5" style="font-size:4px;font-weight:bold;font-family:'arial', sans-serif;color:#333;text-shadow:0 0 6px #ffffff, 0 0 3px #ffffff;fill:#333;text-rendering:geometricprecision;" y="11"><tspan>40</tspan></text></g></g><g class="highcharts-legend" transform="translate(253,358)"><g><g><g class="highcharts-legend-item" transform="translate(8,3)"><text x="21" style="color:#333;font-size:13px;font-weight:bold;cursor:pointer;font-family:dosis, sans-serif;text-transform:none;fill:#333;" text-anchor="start" y="16">Languages</text><rect x="0" y="4" width="16" height="13" fill="#CCC"></rect></g></g></g></g><g class="highcharts-axis-labels highcharts-xaxis-labels"><text x="85" style="color:#606060;cursor:default;font-size:12px;font-family:dosis, sans-serif;text-transform:none;font-weight:normal;fill:#606060;width:80px;text-overflow:clip;" text-anchor="end" transform="translate(0,0)" y="121" z="0" opacity="1"><tspan>HTML</tspan></text><text x="85" style="color:#606060;cursor:default;font-size:12px;font-family:dosis, sans-serif;text-transform:none;font-weight:normal;fill:#606060;width:80px;text-overflow:clip;" text-anchor="end" transform="translate(0,0)" y="154" z="0" opacity="1"><tspan>CSS</tspan></text><text x="85" style="color:#606060;cursor:default;font-size:12px;font-family:dosis, sans-serif;text-transform:none;font-weight:normal;fill:#606060;width:80px;text-overflow:clip;" text-anchor="end" transform="translate(0,0)" y="188" z="0" opacity="1"><tspan>Ruby</tspan></text><text x="85" style="color:#606060;cursor:default;font-size:12px;font-family:dosis, sans-serif;text-transform:none;font-weight:normal;fill:#606060;width:80px;text-overflow:clip;" text-anchor="end" transform="translate(0,0)" y="221" z="0" opacity="1"><tspan>Rails</tspan></text><text x="85" style="color:#606060;cursor:default;font-size:12px;font-family:dosis, sans-serif;text-transform:none;font-weight:normal;fill:#606060;width:80px;text-overflow:clip;" text-anchor="end" transform="translate(0,0)" y="255" z="0" opacity="1"><tspan>Javascript</tspan></text><text x="85" style="color:#606060;cursor:default;font-size:12px;font-family:dosis, sans-serif;text-transform:none;font-weight:normal;fill:#606060;width:80px;text-overflow:clip;" text-anchor="end" transform="translate(0,0)" y="288" z="0" opacity="1"><tspan>ReactJs</tspan></text></g><g class="highcharts-axis-labels highcharts-zaxis-labels"></g><g class="highcharts-axis-labels highcharts-yaxis-labels"><text x="100" style="color:#606060;cursor:default;font-size:12px;font-family:dosis, sans-serif;text-transform:none;font-weight:normal;fill:#606060;" text-anchor="middle" transform="translate(0,0)" y="320" z="0" opacity="1">0</text><text x="166.66666666666669" style="color:#606060;cursor:default;font-size:12px;font-family:dosis, sans-serif;text-transform:none;font-weight:normal;fill:#606060;" text-anchor="middle" transform="translate(0,0)" y="320" z="0" opacity="1">10</text><text x="233.33333333333334" style="color:#606060;cursor:default;font-size:12px;font-family:dosis, sans-serif;text-transform:none;font-weight:normal;fill:#606060;" text-anchor="middle" transform="translate(0,0)" y="320" z="0" opacity="1">20</text><text x="300" style="color:#606060;cursor:default;font-size:12px;font-family:dosis, sans-serif;text-transform:none;font-weight:normal;fill:#606060;" text-anchor="middle" transform="translate(0,0)" y="320" z="0" opacity="1">30</text><text x="366.6666666666667" style="color:#606060;cursor:default;font-size:12px;font-family:dosis, sans-serif;text-transform:none;font-weight:normal;fill:#606060;" text-anchor="middle" transform="translate(0,0)" y="320" z="0" opacity="1">40</text><text x="433.33333333333337" style="color:#606060;cursor:default;font-size:12px;font-family:dosis, sans-serif;text-transform:none;font-weight:normal;fill:#606060;" text-anchor="middle" transform="translate(0,0)" y="320" z="0" opacity="1">50</text><text x="500" style="color:#606060;cursor:default;font-size:12px;font-family:dosis, sans-serif;text-transform:none;font-weight:normal;fill:#606060;" text-anchor="middle" transform="translate(0,0)" y="320" z="0" opacity="1">60</text></g><g class="highcharts-tooltip" display="none" style="cursor:default;padding:0;pointer-events:none;white-space:nowrap;" transform="translate(0,0)"><path fill="rgb(219,219,216)" fill-opacity="0.8" d="M 3 0 L 13 0 C 16 0 16 0 16 3 L 16 13 C 16 16 16 16 13 16 L 3 16 C 0 16 0 16 0 13 L 0 3 C 0 0 0 0 3 0"></path><text x="8" style="font-size:12px;color:#333;fill:#333;" y="20"></text></g><text x="590" text-anchor="end" style="cursor:pointer;color:#666;font-size:9px;fill:#666;" y="395">meta-chart.com</text></svg>